# xmcd
#
# Track frame offsets:
#	150
#	13395
#	27169
#	41461
#	56785
#	69744
#	82211
#	95666
#	107174
#	126436
#	144535
#	162163
#	175297
#	190773
#	201234
#	211891
#	227151
#
# Disc length: 3200 seconds
#
# Revision: 0
# Processed by: cddbd v1.5.2PL0 Copyright (c) Steve Scherf et al.
# Submitted via: EasyCDDAExtractor 16.0.8.2
#
DISCID=fe0c7e11
DTITLE=Συλλογικός δίσκος - Μέσ' στου Αιγαίου τα νησιά 3
DYEAR=1999
DGENRE=Παραδοσιακή
TTITLE0=Λεγάκη Ελένη - Γιάντα
TTITLE1=Κονιτοπούλου Ειρήνη - Δεν έχω έρωτα σταλιά
TTITLE2=Κονιτόπουλος Γιώργος - Ντίνι ντίνι νταχτιρντί
TTITLE3=Κονδύλης Μανώλης - Στον κατηφένιο σου οντά
TTITLE4=Κονιτοπούλου Ειρήνη - Με κοτσάκια φανερώνω
TTITLE5=Σαρρή Έφη - Η τράτα μας η κουρελού
TTITLE6=Μάγγελ Ελενα - Τ' ορκίζεσαι μικρό μου
TTITLE7=Κονιτοπούλου Ειρήνη - Οι Xιόνες
TTITLE8=Σκουλαξινού Μαρία - Ποταμός (Ωραίος πού 'ναι ο ποταμός)[Παραδοσιακό]
TTITLE9=Χατζηδάκη Δικαία - Πέρα στον πέρα κάμπο
TTITLE10=Λεγάκη Ελένη - Όμορφη που είσαι θάλασσα
TTITLE11=Χατζοπούλου Μαριάννα - Ο καπετάν Αντώνης
TTITLE12=Μάγγελ Ελενα - Η γερακίνα [Παραδοσιακό]
TTITLE13=Κουκουλάρη Νίκη - Τα παλιά μου βάσανα [Παραδοσιακό]
TTITLE14=Ιωσηφέλης Γιώργος - Απόψε στ' ακρογιάλι
TTITLE15=Κονιτοπούλου Ειρήνη - Όλα τα πάντα αλλάξανε
TTITLE16=Χατζηδάκη Δικαία - Ντιρλαντά
EXTD=
EXTT0=
EXTT1=
EXTT2=
EXTT3=
EXTT4=
EXTT5=
EXTT6=
EXTT7=
EXTT8=
EXTT9=
EXTT10=
EXTT11=
EXTT12=
EXTT13=
EXTT14=
EXTT15=
EXTT16=
PLAYORDER=
